<svg xmlns="http://www.w3.org/2000/svg" viewBox="0 0 166.83 81.31"><defs><style>.cls-1{isolation:isolate;}.cls-2{fill:#423868;}.cls-3,.cls-4,.cls-5,.cls-6,.cls-7,.cls-8{fill:#1cb0cf;}.cls-4{opacity:0.19;}.cls-4,.cls-6{mix-blend-mode:overlay;}.cls-5,.cls-7,.cls-8{mix-blend-mode:screen;}.cls-6{opacity:0.43;}.cls-7{opacity:0.4;}.cls-8{opacity:0.85;}</style></defs><g class="cls-1"><g id="Layer_2" data-name="Layer 2"><g id="Layer_1-2" data-name="Layer 1"><path class="cls-2" d="M33.6,78.36a10.09,10.09,0,0,0,14.27,0h0a10.09,10.09,0,0,0,0-14.27L17.31,33.53A10.09,10.09,0,0,0,3,33.53H3A10.09,10.09,0,0,0,3,47.8l18.08,18Z"/><path class="cls-3" d="M47.87,3A10.08,10.08,0,0,0,33.6,3L3,33.51a9.89,9.89,0,0,0-.4,13.86l.15.16.21.21,0,0,0,0,18,18c-9.71-9.7,3.32-25.18,3.32-25.18h0L47.87,17.23A10.09,10.09,0,0,0,47.87,3Z"/><path class="cls-2" d="M133.23,3A10.07,10.07,0,0,0,119,3h0a10.09,10.09,0,0,0,0,14.27l30.56,30.55a10.07,10.07,0,0,0,14.27,0h0a10.09,10.09,0,0,0,0-14.27l-18.08-18Z"/><path class="cls-3" d="M119,78.36a10.09,10.09,0,0,0,14.27,0L163.79,47.8a9.88,9.88,0,0,0,.4-13.85l-.15-.17-.21-.2,0,0,0,0-18-18c9.71,9.71-3.32,25.18-3.32,25.18h0L119,64.09A10.09,10.09,0,0,0,119,78.36Z"/><path class="cls-3" d="M99.63,28.66l2.7-2.71A14.94,14.94,0,0,1,99.63,28.66Z"/><path class="cls-3" d="M81.93,35.85v42.5a35,35,0,0,1-5.69-.74c-.46-.1-.92-.21-1.36-.34A31.35,31.35,0,0,1,62.77,71h0a32.27,32.27,0,0,1-11.7-21.3c.31,0,.54-.05.77-.05H60.3a2,2,0,0,1,.38,0c.29.07.42.26.51.68A22.58,22.58,0,0,0,71.45,65.09a5.55,5.55,0,0,0,.61.32V45.77H50.88c0-.36-.05-.62-.05-.88,0-5.62,0-11.24,0-16.87V25.21A11.63,11.63,0,0,1,60.6,13.43a10.49,10.49,0,0,1,1.77-.15H81.25l.54,0,.14,0V23.87l-.16-.06.16.07v8H72.14V23.24a2.8,2.8,0,0,0-.47-.07h-9a1.7,1.7,0,0,0-1.87,1.77c0,.34,0,.69,0,1,0,2.4,0,4.81,0,7.21v2.24c0,.1,0,.2.07.42Z"/><path class="cls-2" d="M114.57,19.33a11.61,11.61,0,0,0-8.42-5.92l0,0v1c0,2.37,0,4.74,0,7.1a1.67,1.67,0,0,1-.1.57,1,1,0,0,1-.24.43L102.33,26l-2.7,2.71L95.28,33a7.35,7.35,0,0,1-.58.47V13.32H84.93v64l.44-.07-.44.07v.9a2.61,2.61,0,0,0,.33.06,7.3,7.3,0,0,0,.81,0,27.18,27.18,0,0,0,2.84-.35,34.08,34.08,0,0,0,5-1.26,1,1,0,0,0,.82-1.11c0-.8,0-1.6,0-2.4q0-3.59,0-7.19c0-5.73,0-11.47,0-17.21V47.64a4.6,4.6,0,0,1,.38.31L99,51.83l0,0q2.29,2.28,4.57,4.59c.72.7,1.42,1.42,2.13,2.13a1.54,1.54,0,0,1,.35.89v.11c0,1,0,2,0,3v6.62A33.69,33.69,0,0,0,113,59.41a33.22,33.22,0,0,0,1.76-4.78,1.23,1.23,0,0,0-.35-1.41l-.78-.78-2.37-2.36c-3-2.95-9.41-9.2-9.79-9.42l4.95-4.85,2.62-2.61q3.32-3.32,6.61-6.64a1.14,1.14,0,0,0,.3-.7A11.76,11.76,0,0,0,114.57,19.33Zm-3.31,30.9s0,0,0-.06,0,0,0,.06-.06.23-.1.35C111.19,50.46,111.23,50.34,111.26,50.23Z"/><path class="cls-4" d="M94.77,75.56A1,1,0,0,1,94,76.67a34.08,34.08,0,0,1-5,1.26l5.84-30.29v1.12c0,5.74,0,11.48,0,17.21q0,3.6,0,7.19C94.76,74,94.76,74.76,94.77,75.56Z"/><path class="cls-4" d="M71.45,65.09a5.55,5.55,0,0,0,.61.32A18.92,18.92,0,0,1,55.47,49.65H60.3a2,2,0,0,1,.38,0c.29.07.42.26.51.68A22.58,22.58,0,0,0,71.45,65.09Z"/><path class="cls-4" d="M114.8,54.63a32.94,32.94,0,0,1-8.69,14.59V62.6a28.52,28.52,0,0,0,7.56-10.16l.78.78A1.23,1.23,0,0,1,114.8,54.63Z"/><path class="cls-5" d="M65.1,13.28c0,.65,0,1.31-.08,2C63.87,20.89,60.22,26.39,50.83,28V25.21A11.63,11.63,0,0,1,60.6,13.43a10.49,10.49,0,0,1,1.77-.15Z"/><path class="cls-5" d="M116,25.86a1.14,1.14,0,0,1-.3.7q-3.28,3.33-6.61,6.64l-2.62,2.61-4.95,4.85c15.6-16.79,4.64-27.25,4.64-27.25a11.61,11.61,0,0,1,8.42,5.92A11.76,11.76,0,0,1,116,25.86Z"/><path class="cls-3" d="M81.93,35.85v7.21a14.94,14.94,0,0,1-9.87,8V45.77H56.76a14.92,14.92,0,1,1,25.17-15.7v1.85H72.14V23.24a2.8,2.8,0,0,0-.47-.07h-9a1.7,1.7,0,0,0-1.87,1.77c0,.34,0,.69,0,1,0,2.4,0,4.81,0,7.21v2.24c0,.1,0,.2.07.42Z"/><path class="cls-4" d="M81.93,35.85v42.5a35,35,0,0,1-5.69-.74c-.46-.1-.92-.21-1.36-.34Z"/><path class="cls-5" d="M81.93,23.87l-.16-.06.16.07v8H72.14q4.83-9.3,9.65-18.61l.14,0Z"/><path class="cls-6" d="M94,76.67a34.08,34.08,0,0,1-5,1.26,27.18,27.18,0,0,1-2.84.35,7.3,7.3,0,0,1-.81,0,2.61,2.61,0,0,1-.33-.06v-.9l.44-.07-.44.07V46.71S87.72,72.33,94,76.67Z"/><path class="cls-4" d="M106.11,68.12V62.6c0-1,0-2,0-3v-.11a1.54,1.54,0,0,0-.35-.89c-.71-.71-1.41-1.43-2.13-2.13q-2.28-2.31-4.57-4.59c.43.42,6.9,6.58,14,7.56a33.69,33.69,0,0,1-6.93,9.81Z"/><path class="cls-7" d="M114.57,19.33s-2.74-2.49-8.58,2.74a1.67,1.67,0,0,0,.1-.57c0-2.36,0-4.73,0-7.1v-1l0,0A11.61,11.61,0,0,1,114.57,19.33Z"/><path class="cls-8" d="M94.7,13.32a16,16,0,0,0-9.77,14.37V13.32Z"/></g></g></g></svg>